<svg width="100" height="100" viewBox="0 0 100 100" fill="none" xmlns="http://www.w3.org/2000/svg">
<g clip-path="url(#clip0_501_25)">
<rect width="100" height="100" fill="#004E64"/>
<path d="M33.4 58.72C33.4 59.68 33.16 60.56 32.68 61.36C32.2 62.16 31.56 62.8 30.76 63.28C29.96 63.76 29.08 64 28.12 64H20.92C19.96 64 19.0667 63.76 18.24 63.28C17.44 62.8 16.8 62.16 16.32 61.36C15.84 60.56 15.6 59.68 15.6 58.72V42.28C15.6 41.2933 15.84 40.4 16.32 39.6C16.8 38.8 17.44 38.16 18.24 37.68C19.0667 37.2 19.96 36.96 20.92 36.96H28.12C29.08 36.96 29.96 37.2 30.76 37.68C31.56 38.16 32.2 38.8 32.68 39.6C33.16 40.4 33.4 41.2933 33.4 42.28V43.36C33.4 43.8667 33.2267 44.2933 32.88 44.64C32.5333 44.9867 32.0933 45.16 31.56 45.16H30.48C29.9733 45.16 29.5333 44.9867 29.16 44.64C28.8133 44.2933 28.64 43.8667 28.64 43.36V42.28C28.64 41.9067 28.4667 41.72 28.12 41.72H20.92C20.5733 41.72 20.4 41.9067 20.4 42.28V58.72C20.4 58.8533 20.4533 58.9867 20.56 59.12C20.6667 59.2267 20.7867 59.28 20.92 59.28H28.12C28.2533 59.28 28.3733 59.2267 28.48 59.12C28.5867 58.9867 28.64 58.8533 28.64 58.72V57.52C28.64 57.0133 28.8133 56.5867 29.16 56.24C29.5333 55.8667 29.9733 55.68 30.48 55.68H31.56C32.0933 55.68 32.5333 55.8667 32.88 56.24C33.2267 56.5867 33.4 57.0133 33.4 57.52V58.72ZM75.0016 58.72C75.0016 59.68 74.7616 60.56 74.2816 61.36C73.8016 62.16 73.1616 62.8 72.3616 63.28C71.5616 63.76 70.6816 64 69.7216 64H62.5216C61.5616 64 60.6682 63.76 59.8416 63.28C59.0416 62.8 58.4016 62.16 57.9216 61.36C57.4416 60.56 57.2016 59.68 57.2016 58.72V38.8C57.2016 38.2667 57.3749 37.8267 57.7216 37.48C58.0949 37.1333 58.5349 36.96 59.0416 36.96H60.1616C60.6682 36.96 61.0949 37.1333 61.4416 37.48C61.8149 37.8267 62.0016 38.2667 62.0016 38.8V58.72C62.0016 58.8533 62.0549 58.9867 62.1616 59.12C62.2682 59.2267 62.3882 59.28 62.5216 59.28H69.7216C69.8549 59.28 69.9749 59.2267 70.0816 59.12C70.1882 58.9867 70.2416 58.8533 70.2416 58.72V38.8C70.2416 38.2667 70.4149 37.8267 70.7616 37.48C71.1349 37.1333 71.5749 36.96 72.0816 36.96H73.1616C73.6949 36.96 74.1349 37.1333 74.4816 37.48C74.8282 37.8267 75.0016 38.2667 75.0016 38.8V58.72ZM83.0563 62.16C83.0563 62.6667 82.8696 63.1067 82.4963 63.48C82.1496 63.8267 81.7229 64 81.2163 64H80.1363C79.6296 64 79.1896 63.8267 78.8163 63.48C78.4696 63.1067 78.2963 62.6667 78.2963 62.16V38.8C78.2963 38.2667 78.4696 37.8267 78.8163 37.48C79.1896 37.1333 79.6296 36.96 80.1363 36.96H81.2163C81.7229 36.96 82.1496 37.1333 82.4963 37.48C82.8696 37.8267 83.0563 38.2667 83.0563 38.8V62.16Z" fill="white"/>
<path d="M53.8147 39.6L41.2947 63.04C40.948 63.68 40.4147 64 39.6947 64H38.4547C37.7614 64 37.2414 63.7067 36.8947 63.12C36.5747 62.5333 36.5614 61.92 36.8547 61.28L49.3747 37.92C49.7214 37.28 50.2547 36.96 50.9747 36.96H52.2147C52.908 36.96 53.428 37.2533 53.7747 37.84C54.1214 38.4 54.1347 38.9867 53.8147 39.6Z" fill="#00A5CF"/>
</g>
<defs>
<clipPath id="clip0_501_25">
<rect width="100" height="100" rx="25" fill="white"/>
</clipPath>
</defs>
</svg>
